<?xml version="1.0" encoding="utf-8"?>
<!-- Generator: Adobe Illustrator 16.0.0, SVG Export Plug-In . SVG Version: 6.00 Build 0)  -->
<!DOCTYPE svg PUBLIC "-//W3C//DTD SVG 1.1//EN" "http://www.w3.org/Graphics/SVG/1.1/DTD/svg11.dtd">
<svg version="1.1" id="Layer_1" xmlns="http://www.w3.org/2000/svg" xmlns:xlink="http://www.w3.org/1999/xlink" x="0px" y="0px"
	 width="500px" height="380px" viewBox="0 0 500 380" enable-background="new 0 0 500 380" xml:space="preserve">
<g>
	<g>
		<path fill="#EAEAF6" d="M95.917,328.012c0,0-73.806-30.96-72.089-93.424c1.716-62.463,70.944-72.241,118.432-33.676
			c47.487,38.564,93.258,27.157,117.859-5.432c24.602-32.59,40.998-113.869,109.85-86.364
			c51.338,20.509,85.803,75.563,96.936,125.186c7.652,34.104-3.439,70.128-30.184,92.629c-0.871,0.731-1.76,1.453-2.672,2.167
			L95.917,328.012z"/>
		<g>
			<defs>
				<path id="SVGID_1_" d="M95.917,328.012c0,0-73.806-30.96-72.089-93.424c1.716-62.463,70.944-82.088,118.432-43.524
					c47.487,38.564,93.258,27.159,117.859-5.432c24.602-32.589,40.998-104.02,109.85-76.515
					c51.338,20.509,85.803,75.563,96.936,125.186c7.652,34.104-3.439,70.128-30.184,92.629c-0.871,0.731-1.76,1.453-2.672,2.167
					L95.917,328.012z"/>
			</defs>
			<clipPath id="SVGID_2_">
				<use xlink:href="#SVGID_1_"  overflow="visible"/>
			</clipPath>
			<path clip-path="url(#SVGID_2_)" fill="#E1E2F2" d="M171.022,193.905c0,0-16.176,134.483,84.841,60.947
				c82.904-60.354,200.436-53.521,202.855,91.771c0,0,42.5,1.818,38.725-71.677c-3.771-73.495-37.736-241.421-135.852-222.553
				S171.022,193.905,171.022,193.905z"/>
		</g>
	</g>
	<g>
		<g>
			<path fill="#F2F3F9" d="M187.904,81.68l89.514,0.372c11.938,0.051,21.344,10.185,20.504,22.092l-14.533,206.176
				c-0.748,10.641-9.602,18.892-20.27,18.892H172.12c-11.817,0-21.142-10.046-20.265-21.831l15.38-206.592
				C168.039,89.979,177.064,81.635,187.904,81.68z"/>
			<path fill="#DADCEF" d="M187.904,81.68l89.514,0.372c11.938,0.051,21.344,10.185,20.504,22.092l-14.533,206.176
				c-0.748,10.641-9.602,18.892-20.27,18.892H172.12c-11.817,0-21.142-10.046-20.265-21.831l15.38-206.592
				C168.039,89.979,177.064,81.635,187.904,81.68z"/>
			<path fill="#C7CBE7" d="M177.846,81.68l89.514,0.372c11.938,0.051,21.344,10.185,20.504,22.092l-14.531,206.176
				c-0.75,10.641-9.604,18.892-20.271,18.892h-90.997c-11.817,0-21.143-10.046-20.267-21.831l15.38-206.592
				C157.98,89.979,167.009,81.635,177.846,81.68z"/>
			<polygon fill="#FFFFFF" points="171.079,100.564 273.445,100.564 261.131,297.217 158.378,297.987 			"/>
			<path fill="#8A92C5" d="M205.206,322.668c-5.604,0-10.165-4.561-10.165-10.165s4.561-10.165,10.165-10.165
				c5.605,0,10.165,4.561,10.165,10.165S210.812,322.668,205.206,322.668z M205.206,303.769c-4.816,0-8.734,3.919-8.734,8.734
				s3.918,8.734,8.734,8.734c4.815,0,8.735-3.919,8.735-8.734S210.021,303.769,205.206,303.769z"/>
			<path fill="#8A92C5" d="M231.649,93.28h-17.168c-0.961,0-1.74-0.779-1.74-1.74l0,0c0-0.961,0.779-1.74,1.74-1.74h17.168
				c0.961,0,1.74,0.779,1.74,1.74l0,0C233.39,92.501,232.61,93.28,231.649,93.28z"/>
		</g>
		<g>
			<path fill="#DADCEF" d="M260.896,151.254h-83.096c-2.161,0-3.885-1.811-3.777-3.97l1.114-22.536
				c0.1-2.014,1.763-3.596,3.777-3.596h83.095c2.162,0,3.885,1.81,3.777,3.97l-1.113,22.536
				C264.574,149.672,262.912,151.254,260.896,151.254z"/>
			<path fill="#C7CBE7" d="M237.967,151.327h22.932c2.006,0,3.658-1.572,3.758-3.576l1.129-22.65
				c0.109-2.148-1.604-3.949-3.756-3.949h-22.931c-2.006,0-3.658,1.573-3.758,3.575l-1.131,22.65
				C234.104,149.525,235.817,151.327,237.967,151.327z"/>
			<path fill="#8A92C5" d="M230.229,128.809h-47.269c-0.313,0-0.565-0.253-0.565-0.566c0-0.312,0.253-0.564,0.565-0.564h47.269
				c0.313,0,0.565,0.253,0.565,0.564C230.795,128.556,230.542,128.809,230.229,128.809z"/>
			<path fill="#8A92C5" d="M229.856,136.349h-47.268c-0.313,0-0.566-0.252-0.566-0.565c0-0.313,0.253-0.564,0.566-0.564h47.268
				c0.312,0,0.564,0.252,0.564,0.564C230.421,136.097,230.168,136.349,229.856,136.349z"/>
			<path fill="#8A92C5" d="M205.567,143.891h-23.352c-0.313,0-0.563-0.252-0.563-0.565c0-0.312,0.251-0.565,0.563-0.565h23.352
				c0.313,0,0.565,0.253,0.565,0.565C206.133,143.638,205.88,143.891,205.567,143.891z"/>
		</g>
		<g>
			<path fill="#DADCEF" d="M257.955,193.86H174.86c-2.161,0-3.885-1.81-3.778-3.971l1.115-22.536
				c0.099-2.013,1.761-3.596,3.777-3.596h83.094c2.162,0,3.885,1.811,3.779,3.97l-1.115,22.536
				C261.633,192.277,259.971,193.86,257.955,193.86z"/>
			<path fill="#C7CBE7" d="M235.026,193.933h22.931c2.006,0,3.658-1.573,3.76-3.575l1.129-22.65c0.105-2.149-1.605-3.95-3.758-3.95
				h-22.93c-2.007,0-3.658,1.572-3.758,3.575l-1.131,22.651C231.162,192.131,232.874,193.933,235.026,193.933z"/>
			<path fill="#8A92C5" d="M227.289,171.415h-47.269c-0.313,0-0.565-0.252-0.565-0.565c0-0.313,0.253-0.564,0.565-0.564h47.269
				c0.313,0,0.563,0.252,0.563,0.564C227.853,171.163,227.602,171.415,227.289,171.415z"/>
			<path fill="#8A92C5" d="M226.914,178.955h-47.267c-0.313,0-0.565-0.252-0.565-0.564c0-0.313,0.253-0.566,0.565-0.566h47.267
				c0.313,0,0.566,0.253,0.566,0.566C227.48,178.703,227.228,178.955,226.914,178.955z"/>
			<path fill="#8A92C5" d="M202.627,186.497h-23.352c-0.313,0-0.566-0.253-0.566-0.565c0-0.313,0.253-0.566,0.566-0.566h23.352
				c0.313,0,0.565,0.253,0.565,0.566C203.192,186.244,202.939,186.497,202.627,186.497z"/>
		</g>
		<polygon fill="#ACB1D3" points="171.079,100.564 158.378,297.987 156.306,297.987 169.035,100.564 		"/>
		<g>
			<circle fill="#FFFFFF" cx="248.748" cy="136.349" r="9.41"/>
			<path fill="#C7CBE7" d="M247.063,139.971c-0.194-0.014-0.384-0.095-0.533-0.241l-3.16-3.105
				c-0.333-0.327-0.337-0.862-0.012-1.195c0.328-0.333,0.862-0.338,1.195-0.01l2.624,2.579l6.026-4.853
				c0.361-0.292,0.895-0.236,1.188,0.128c0.293,0.363,0.236,0.895-0.127,1.188l-6.612,5.324
				C247.48,139.924,247.269,139.984,247.063,139.971z"/>
		</g>
		<g>
			<circle fill="#FFFFFF" cx="246.535" cy="178.955" r="9.409"/>
			<path fill="#C7CBE7" d="M244.853,182.576c-0.194-0.013-0.386-0.094-0.534-0.24l-3.161-3.105c-0.332-0.327-0.337-0.862-0.01-1.195
				c0.328-0.333,0.862-0.338,1.195-0.01l2.624,2.578l6.025-4.852c0.361-0.293,0.895-0.236,1.188,0.127s0.234,0.895-0.129,1.188
				l-6.61,5.324C245.269,182.529,245.057,182.59,244.853,182.576z"/>
		</g>
	</g>
	<g>
		<path fill="#9CB7DF" d="M62.019,255.877c0,0-1.206-1.875-4.319-14.422c-3.113-12.549-11.26-24.528-23.957-20.076
			s-9.05,19.244-2.797,43.133c4.465,17.054-13.769,30.289,10.264,43.545c14.555,8.025,39.843-2.771,34.879-27.045
			c0,0-1.209-7.365-6.162-13.566C64.972,261.243,62.019,255.877,62.019,255.877z"/>
		<g>
			<path fill="#688CC8" d="M51.97,330.743c-0.28-0.063-0.468-0.332-0.423-0.618c5.775-36.95-9.995-86.584-10.155-87.08
				c-0.093-0.287,0.065-0.596,0.353-0.688c0.287-0.094,0.596,0.065,0.688,0.352c0.161,0.5,16.011,50.382,10.195,87.584
				c-0.046,0.298-0.326,0.502-0.624,0.455C51.991,330.747,51.98,330.745,51.97,330.743z"/>
			<path fill="#688CC8" d="M46.883,262.549c-0.03-0.006-0.061-0.016-0.091-0.028c-0.279-0.114-0.413-0.435-0.299-0.714
				c0.027-0.065,2.708-6.646,3.716-12.227c0.054-0.299,0.338-0.494,0.635-0.442c0.3,0.052,0.494,0.339,0.441,0.635
				c-1.028,5.696-3.752,12.383-3.779,12.448C47.403,262.473,47.138,262.605,46.883,262.549z"/>
			<path fill="#688CC8" d="M49.106,273.6c-0.076-0.017-0.15-0.051-0.217-0.101c-2.819-2.185-9.865-6.239-9.936-6.281
				c-0.262-0.149-0.352-0.483-0.201-0.745s0.482-0.355,0.746-0.202c0.292,0.169,7.182,4.134,10.061,6.364
				c0.239,0.184,0.282,0.528,0.098,0.767C49.523,273.573,49.307,273.645,49.106,273.6z"/>
			<path fill="#688CC8" d="M51.004,284.37c-0.038-0.01-0.077-0.022-0.113-0.04c-0.274-0.127-0.393-0.453-0.265-0.727l3.607-7.729
				c0.128-0.273,0.452-0.394,0.727-0.265c0.274,0.13,0.393,0.453,0.264,0.727l-3.606,7.73
				C51.507,284.303,51.248,284.422,51.004,284.37z"/>
		</g>
	</g>
	<path fill="#EAEAF6" d="M117.521,133.702c0,0-2.51-2.887-4.05-4.21c-2.77-2.384-5.948-6.597-16.113-3.492
		c-0.791,0.242-1.556,0.562-2.316,0.884c-0.896,0.379-3.672,0.39-6.516-1.868c-4.517-3.586-6.283-6.292-12.473-6.377
		c-7.2-0.097-8.333,8.879-13.93,11.177c-3.562,1.463-12.959,2.916-14.902,3.563L117.521,133.702z"/>
	
		<path fill="none" stroke="#EAEAF6" stroke-width="0.9001" stroke-linecap="round" stroke-linejoin="round" stroke-miterlimit="10" d="
		M254.844,29.155c0,0,2.201-2.532,3.549-3.691c2.43-2.089,5.215-5.782,14.123-3.061c0.693,0.211,1.363,0.492,2.031,0.774
		c0.787,0.333,3.219,0.342,5.711-1.637c3.959-3.144,5.508-5.516,10.932-5.59c6.313-0.085,7.307,7.783,12.209,9.797
		c3.123,1.281,11.361,2.556,13.063,3.123L254.844,29.155z"/>
	<path fill="#EAEAF6" d="M364.512,71.385c0,0,3.865-4.445,6.232-6.482c4.268-3.669,9.16-10.154,24.805-5.374
		c1.217,0.371,2.395,0.864,3.564,1.36c1.381,0.584,5.654,0.6,10.029-2.875c6.953-5.521,9.672-9.687,19.199-9.816
		c11.084-0.15,12.828,13.667,21.441,17.204c5.482,2.25,19.945,4.488,22.939,5.485L364.512,71.385z"/>
	<g>
		<path fill="#275C62" d="M138.059,80.189c2.01-2.416,3.224-5.514,3.224-8.882c0-7.661-6.27-13.928-13.928-13.928H97.177
			c-7.661,0-13.929,6.267-13.929,13.928c0,7.66,6.268,13.927,13.929,13.927h30.178c2.23,0,4.336-0.544,6.211-1.487l6.979,3.825
			L138.059,80.189z"/>
		<g>
			<circle fill="#FFFFFF" cx="122.679" cy="71.307" r="3.034"/>
			<circle fill="#FFFFFF" cx="112.265" cy="71.307" r="3.034"/>
			<circle fill="#FFFFFF" cx="101.851" cy="71.307" r="3.034"/>
		</g>
	</g>
	<g>
		<path fill="#9AB5DE" d="M392.205,295.237c-0.957,0.06-25.15-2.847-26.25-25.345c-1.1-22.497,14.32-28.067,10.26-53.113
			c-4.059-25.047-14.701-32.242,9.154-50.522c0,0,10.637-7.361,11.131-17.685c0.594-12.359,21.93-26.703,36.24-18.459
			s10.947,20.983-1.307,41.595c-12.254,20.611-0.443,24.21,1.91,30.874c2.354,6.665,7.816,13.655-4.691,29.581
			c-12.508,15.927,2.393,35.373-8.254,50.625C420.398,282.787,411.057,294.074,392.205,295.237z"/>
		<g>
			<path fill="#688BC7" d="M395.986,329.72c0.518-0.131,0.852-0.646,0.75-1.18c-12.994-68.668,13.496-162.316,13.764-163.253
				c0.158-0.542-0.158-1.109-0.699-1.263c-0.541-0.157-1.107,0.156-1.264,0.7c-0.27,0.943-26.891,95.057-13.809,164.197
				c0.105,0.555,0.641,0.918,1.195,0.815C395.945,329.731,395.965,329.726,395.986,329.72z"/>
			<path fill="#688BC7" d="M401.41,202.043c0.057-0.013,0.113-0.031,0.166-0.058c0.516-0.229,0.746-0.834,0.516-1.349
				c-0.055-0.122-5.455-12.257-7.67-22.619c-0.117-0.552-0.66-0.903-1.213-0.786c-0.555,0.116-0.902,0.661-0.783,1.213
				c2.26,10.577,7.746,22.904,7.803,23.025C400.432,201.931,400.938,202.165,401.41,202.043z"/>
			<path fill="#688BC7" d="M397.916,222.819c0.143-0.036,0.279-0.103,0.4-0.202c5.135-4.248,18.053-12.244,18.184-12.324
				c0.479-0.297,0.627-0.926,0.328-1.405c-0.293-0.481-0.92-0.635-1.404-0.331c-0.535,0.329-13.168,8.148-18.412,12.485
				c-0.434,0.359-0.494,1.004-0.135,1.438C397.137,222.795,397.547,222.913,397.916,222.819z"/>
			<path fill="#688BC7" d="M395.018,243.047c0.068-0.02,0.141-0.045,0.209-0.079c0.504-0.255,0.705-0.869,0.449-1.373l-7.199-14.222
				c-0.254-0.502-0.867-0.708-1.373-0.449c-0.504,0.254-0.703,0.869-0.449,1.373l7.199,14.222
				C394.074,242.953,394.563,243.162,395.018,243.047z"/>
		</g>
	</g>
	<g>
		<path fill="#275C62" d="M450.275,304.133c-0.902,0.696-8.996-13.968-10.883-32.618c0,0-0.912-9.172,7.789-4.502
			c0,0-9.002-40.106,14.98-37.111c4.135,0.515,6.492,1.437,8.871,4.05c3.221,3.536,4.996,9.24,1.191,17.441
			c-7.609,16.404-14.293,22.772-11.021,31.46C464.473,291.542,463.367,294.025,450.275,304.133z"/>
		<path fill="#9AB5DE" d="M452.615,330.235c0.479-0.098,0.785-0.565,0.688-1.041c-5.527-26.957,2.424-72.364,3.434-74.354
			c0.285-0.397,0.182-0.926-0.217-1.209c-0.393-0.284-0.959-0.17-1.244,0.225c-1.639,2.281-9.064,49.543-3.701,75.692
			C451.672,330.025,452.139,330.333,452.615,330.235z"/>
	</g>
	
		<line fill="none" stroke="#1E2738" stroke-width="0.4922" stroke-linecap="round" stroke-linejoin="round" stroke-miterlimit="10" x1="-0.152" y1="329.658" x2="500.152" y2="329.658"/>
	<g>
		<g>
			<polygon fill="#3E425B" points="308.145,244.151 304.988,256.722 342.951,258.758 341.668,243.006 			"/>
			<polygon fill="#3E425B" points="323.744,252.335 312.699,289.641 312.918,346.001 299.441,346.283 296.828,288.784 
				305.854,253.334 			"/>
			<polygon opacity="0.44" fill="#C8C8C8" points="322.172,257.643 313.414,256.81 319.846,265.5 			"/>
			<polygon fill="#3E425B" points="342.863,256.193 345.416,291.197 356.08,348.97 342.748,351.708 329.859,292.778 325.41,252.404 
							"/>
			<g>
				<path fill="#2A333E" d="M303.285,346.109l7.34-0.049l0.191,10.518l-20.871,0.139l0,0c0.148-1.652,1.26-2.954,2.871-3.35
					l10.336-2.526L303.285,346.109z"/>
				
					<rect x="289.95" y="356.647" transform="matrix(1 -0.0066 0.0066 1 -2.3683 2.0037)" fill="#C7CBE7" width="20.872" height="1.624"/>
				<circle fill="#FFFFFF" cx="306.811" cy="350.47" r="1.602"/>
			</g>
			<g>
				<path fill="#2A333E" d="M346.605,350.251l7.277-0.963l1.502,10.41l-20.689,2.742l0,0c-0.059-1.657,0.883-3.089,2.432-3.681
					l9.938-3.797L346.605,350.251z"/>
				
					<rect x="334.712" y="361.062" transform="matrix(0.9913 -0.1314 0.1314 0.9913 -44.5548 48.4866)" fill="#C7CBE7" width="20.87" height="1.624"/>
				<path fill="#FFFFFF" d="M352.234,353.928c0.117,0.876-0.5,1.68-1.377,1.796c-0.875,0.116-1.682-0.5-1.795-1.377
					c-0.119-0.876,0.5-1.68,1.377-1.796C351.314,352.435,352.119,353.051,352.234,353.928z"/>
			</g>
			<path fill="#5054A4" d="M292.805,224.793c-0.148-0.009-0.295-0.025-0.443-0.048l-34.279-5.093l1.666-11.205l30.707,4.563
				c6.107-9.271,15.443-20.124,15.443-20.124c-0.068,0.139,0.348,0.493,0,0l10.805,1.118c0.482,2.731-1.896,2.752-18.787,28.267
				C296.785,223.979,294.826,224.934,292.805,224.793z"/>
			<path fill="#5958A6" d="M325.064,189.962l1.115,0.184c4.895,0.805,8.84,4.456,10.016,9.277l7.846,44.684
				c-16.682,9.092-37.789,0.098-37.789,0.098l-4.055-41.674c-0.57-4.595,1.828-9.045,5.98-11.094l0,0L325.064,189.962z"/>
			<polygon fill="#DDB38D" points="321.299,193.933 311.908,193.152 313.438,171.83 322.83,172.611 			"/>
			<path fill="#DDB38D" d="M309.604,191.305l14.35-1.254c0,0-0.102,8.383-8.758,8.262
				C307.283,198.201,309.604,191.305,309.604,191.305z"/>
			<g>
				<circle fill="#FFFFFF" cx="252.627" cy="213.006" r="6.089"/>
				<path fill="#FFFFFF" d="M261.977,217.676l-6.244-1.057c-1.633-0.277-2.74-1.837-2.467-3.469l0,0
					c0.277-1.631,1.838-2.74,3.471-2.465l6.244,1.059c1.631,0.275,2.74,1.838,2.465,3.469l0,0
					C265.168,216.844,263.607,217.953,261.977,217.676z"/>
			</g>
			<g>
				<circle fill="#C1372C" cx="258.64" cy="218.068" r="17.507"/>
				<path fill="#F5F8FD" d="M255.506,224.805c-0.363-0.024-0.717-0.174-0.994-0.445l-5.881-5.779
					c-0.618-0.607-0.628-1.604-0.02-2.225c0.609-0.618,1.604-0.627,2.224-0.019l4.884,4.799l11.209-9.03
					c0.676-0.545,1.666-0.438,2.213,0.238c0.543,0.676,0.436,1.666-0.24,2.21l-12.299,9.908
					C256.281,224.719,255.889,224.831,255.506,224.805z"/>
			</g>
			<path fill="#E2BC9A" d="M310.207,186.192L310.207,186.192c-6.381-0.442-11.197-5.972-10.754-12.353l0.992-14.361l23.107,1.598
				l-0.992,14.362C322.117,181.817,316.588,186.632,310.207,186.192z"/>
			<path fill="#282C3C" d="M322.709,171.615l-3.301-0.163c-0.898-0.044-1.527-0.895-1.313-1.769
				c0.576-2.354,1.324-6.413-0.197-6.998c-2.16-0.832-14.121,1.544-17.957-1.753c-5.4-4.643-0.912-11.288,4.203-11.275
				c5.115,0.013,4.016,5.874,9.969,6.115c5.951,0.241,15.113-1.513,10.289,14.014L322.709,171.615z"/>
			<circle fill="#E2BC9A" cx="323.106" cy="172.265" r="3.639"/>
			<g>
				<circle fill="#E0AF77" cx="275.513" cy="228.58" r="6.09"/>
				<path fill="#E0AF77" d="M285.275,232.307l-6.318-0.438c-1.652-0.114-2.908-1.557-2.795-3.208l0,0
					c0.115-1.65,1.559-2.908,3.209-2.793l6.32,0.436c1.65,0.115,2.906,1.559,2.793,3.209l0,0
					C288.369,231.162,286.926,232.419,285.275,232.307z"/>
			</g>
			<path fill="#5958A6" d="M281.824,234.586l0.016-11.328l31.219,0.047l10.73-25.457c1.299-2.845,4.658-4.101,7.504-2.802l0,0
				c2.844,1.298,4.1,4.656,2.801,7.503l-12.246,28.774c-0.92,2.021-2.938,3.317-5.16,3.315L281.824,234.586z"/>
			<rect x="297.697" y="340.391" fill="#545A76" width="16.898" height="5.893"/>
			
				<rect x="340.598" y="344.908" transform="matrix(-0.9813 0.1924 -0.1924 -0.9813 758.5127 622.0326)" fill="#545A76" width="16.898" height="5.892"/>
		</g>
		<path fill="#FFFFFF" d="M301.705,175.943l9.971,0.475c0,0-0.588,3.818-5.957,3.233
			C301.482,179.189,301.705,175.943,301.705,175.943z"/>
		<path fill="#5054A4" d="M305.32,234.619l10.078,0.02c2.828-0.184,5.332-1.896,6.529-4.466l11.203-25.362
			c-4.342,14.795-10.055,29.859-10.055,29.859c-0.697,1.922-2.555,3.176-4.598,3.1l-12.902-0.518L305.32,234.619z"/>
	</g>
	<g>
		<path opacity="0.12" fill="#B9B9B9" d="M243.218,253.631l-74.509,9.875c-2.026,0.27-3.887-1.156-4.156-3.182l-2.628-19.834
			c-0.27-2.027,1.156-3.889,3.183-4.156l74.508-9.877c2.027-0.268,3.889,1.156,4.156,3.184l2.63,19.834
			C246.67,251.502,245.244,253.361,243.218,253.631z"/>
		<path fill="#DADCEF" d="M237.896,244.654l-74.509,9.876c-2.026,0.268-3.887-1.157-4.156-3.185l-2.628-19.834
			c-0.27-2.025,1.156-3.887,3.183-4.156l74.508-9.876c2.027-0.269,3.889,1.157,4.156,3.185l2.63,19.833
			C241.348,242.523,239.923,244.384,237.896,244.654z"/>
		<path fill="#8A92C5" d="M164.184,233.803c-0.256,0-0.476-0.189-0.509-0.445c-0.04-0.285,0.159-0.541,0.439-0.579l42.669-5.657
			c0.299-0.057,0.541,0.16,0.578,0.441c0.04,0.284-0.159,0.541-0.439,0.578l-42.671,5.656
			C164.229,233.801,164.206,233.803,164.184,233.803z"/>
		<path fill="#8A92C5" d="M165.087,240.611c-0.257,0-0.478-0.189-0.51-0.447c-0.039-0.283,0.159-0.541,0.44-0.577l42.668-5.658
			c0.3-0.055,0.541,0.161,0.579,0.442c0.039,0.282-0.159,0.541-0.442,0.576l-42.668,5.658
			C165.13,240.609,165.109,240.611,165.087,240.611z"/>
		<path fill="#8A92C5" d="M165.987,247.416c-0.254,0-0.476-0.189-0.509-0.445c-0.038-0.285,0.161-0.541,0.441-0.579l21.111-2.824
			c0.3-0.055,0.542,0.161,0.579,0.44c0.037,0.284-0.161,0.541-0.442,0.578l-21.111,2.824
			C166.032,247.414,166.01,247.416,165.987,247.416z"/>
	</g>
	<g>
		<path fill="#2A333E" d="M135.27,339.35l-6.683-0.508l-0.981,10.981l19.035,1.506l0.112-1.479
			c-0.031-1.513-0.961-2.769-2.404-3.229l-9.257-2.954L135.27,339.35z"/>
		<path fill="#2A333E" d="M48.684,335.332l-0.664-6.67l-10.983,0.943l1.827,19.01l1.477-0.147c1.486-0.294,2.561-1.43,2.764-2.93
			l1.297-9.629L48.684,335.332z"/>
		<path fill="#5958A6" d="M76.258,285.611l12.119,39.066l-42.271,2.516l1.258,10.063l51.545-1.738
			c4.576-0.148,8.045-3.64,7.112-8.973l-2.891-29.026l27.249-0.42l-4.711,43.092l11.739,0.418l11.514-48.422
			c1.41-5.937-3.005-11.664-9.104-11.809l-27.723-0.694L76.258,285.611z"/>
		<g>
			<g>
				<polygon fill="#DDB38D" points="93.654,240.027 104.072,242.235 108.492,220.135 98.175,217.974 				"/>
				<path fill="#E2BC9A" d="M101.836,231.676h0.002c5.83,1.221,11.549-2.518,12.771-8.349l2.749-13.124l-21.119-4.425l-2.749,13.124
					C92.268,224.735,96.005,230.452,101.836,231.676z"/>
				<path fill="#282C3C" d="M109.631,215.874l-2.022,9.649c-0.806,3.852-4.409,6.357-8.048,5.596l-1.907-0.4
					c-6.363-1.332-10.378-7.875-8.967-14.61l1.826-8.72l19.844,4.156L109.631,215.874z"/>
				<path fill="#282C3C" d="M108.944,214.447c0,0,4.952,1.311,8.074,1.357c4.072,0.063,6.597-4.609,4.057-7.793
					c-0.112-0.141-0.231-0.281-0.361-0.424c-3.105-3.377-8.525-1.695-8.498-1.357C112.242,206.566,108.944,214.447,108.944,214.447z
					"/>
				<path fill="#282C3C" d="M115.339,208.859c0,0-6.069-8.904-16.561-6.282c0,0-4.025-0.212-8.266,4.812l17.65,8.402
					L115.339,208.859z"/>
				<circle fill="#E2BC9A" cx="108.395" cy="220.786" r="3.156"/>
				<circle fill="#282C3C" cx="90.714" cy="199.183" r="10.201"/>
			</g>
			<path fill="#C1372C" d="M112.377,279.341c-3.887-6.327-2.036-20.934-0.438-29.695c0.785-4.306-1.168-8.651-4.885-10.967l0,0
				l-12.067-3.572c-2.992-1.03-6.905,2.442-9.036,4.784c-19.036,20.92-11.703,47.561-11.703,47.561
				c6.493,1.586,14.478,1.514,18.826,0.972l-0.002,0.006c0.057-0.006,0.109-0.017,0.165-0.022c0.08-0.01,0.158-0.021,0.237-0.03
				C105.084,287.11,112.377,279.341,112.377,279.341z"/>
			<g>
				<g>
					<circle fill="#E2BC9A" cx="163.013" cy="241.304" r="6.522"/>
					<path fill="#E2BC9A" d="M156.25,250.221l5.495-3.977c1.437-1.038,1.761-3.063,0.723-4.5h-0.001
						c-1.038-1.434-3.063-1.76-4.498-0.721L152.472,245c-1.435,1.037-1.761,3.063-0.721,4.499l0,0
						C152.79,250.934,154.814,251.26,156.25,250.221z"/>
				</g>
				<path fill="#C1372C" d="M160.678,250.338l-6.431-10.287l-28.349,17.726l-17.792-18.118c-2.793-1.851-6.556-1.088-8.408,1.705
					l0,0c-1.851,2.79-1.088,6.555,1.703,8.406l21.049,20.277c1.982,1.313,4.55,1.349,6.567,0.088L160.678,250.338z"/>
			</g>
		</g>
		<polygon opacity="0.44" fill="#C8C8C8" points="103.13,297.519 114.56,291.105 113.941,294.072 130.379,297.099 		"/>
	</g>
	<g>
		<path fill="#FFFFFF" d="M354.977,135.484l-0.945-2.708l-0.943,2.708c-0.799,2.283-2.689,4.209-5.252,5.347l0,0l0,0
			c2.563,1.139,4.453,3.065,5.252,5.348l0.943,2.708l0.945-2.708c0.799-2.282,2.689-4.208,5.252-5.348l0,0l0,0
			C357.666,139.693,355.775,137.767,354.977,135.484z"/>
		<path fill="#FFFFFF" d="M71.438,214.086l-0.623-1.787l-0.624,1.787c-0.525,1.506-1.773,2.777-3.464,3.528l0,0l0,0
			c1.69,0.751,2.938,2.021,3.464,3.526l0.624,1.787l0.623-1.787c0.526-1.506,1.775-2.775,3.466-3.526l0,0l0,0
			C73.213,216.863,71.964,215.592,71.438,214.086z"/>
	</g>
</g>
</svg>
